<svg xmlns="http://www.w3.org/2000/svg" width="1600" height="1720" viewBox="0 0 1600 1720">
<defs>
  <linearGradient id="sunset" x1="0" y1="0" x2="1" y2="1"><stop stop-color="#5d2730"/><stop offset=".42" stop-color="#d17c45"/><stop offset="1" stop-color="#182340"/></linearGradient>
  <linearGradient id="ink" x1="0" y1="0" x2="0" y2="1"><stop stop-color="#2a2630"/><stop offset="1" stop-color="#08090d"/></linearGradient>
  <linearGradient id="blue" x1="0" y1="0" x2="1" y2="1"><stop stop-color="#c8dcff"/><stop offset=".52" stop-color="#4e76c2"/><stop offset="1" stop-color="#17213f"/></linearGradient>
  <linearGradient id="paper" x1="0" y1="0" x2="0" y2="1"><stop stop-color="#f7e7c9"/><stop offset="1" stop-color="#b77c45"/></linearGradient>
  <linearGradient id="mountain" x1="0" y1="0" x2="0" y2="1"><stop stop-color="#dbe5ee"/><stop offset="1" stop-color="#7890aa"/></linearGradient>
  <radialGradient id="halo"><stop stop-color="#ffd69a" stop-opacity=".88"/><stop offset="1" stop-color="#f5a34d" stop-opacity="0"/></radialGradient>
  <pattern id="cloud" width="150" height="70" patternUnits="userSpaceOnUse"><path d="M12 45c16-24 37-22 48-4 15-27 49-24 59 2 15-7 31 3 31 17H0c0-10 5-14 12-15z" fill="#fff" opacity=".12"/></pattern>
  <filter id="shadow"><feGaussianBlur stdDeviation="10"/></filter>
</defs>
<!-- HERO 0,0 1200x500 -->
<g id="hero">
 <rect width="1200" height="500" fill="url(#sunset)"/><rect width="1200" height="500" fill="url(#cloud)" opacity=".65"/>
 <circle cx="830" cy="105" r="190" fill="url(#halo)"/>
 <g fill="#351d24" opacity=".78"><path d="M0 325h1200v175H0z"/><path d="M110 320h160l-22-20H132zM320 300h210l-32-27H350zM570 315h180l-25-24H595zM910 295h220l-35-28H945z"/><path d="M148 300v-80h85v80m120-28v-95h130v95m140 20v-105h90v105m340-25v-100h120v100"/></g>
 <g transform="translate(690 90)"><ellipse cx="160" cy="325" rx="255" ry="55" fill="#080a11" opacity=".7"/><path d="M80 355c8-135 30-215 80-235 54 20 81 105 88 235z" fill="#b36c2d" stroke="#f5c078" stroke-width="7"/><path d="M125 130V77h70v53z" fill="#151319"/><path d="M105 82h110l-20-30h-70z" fill="#0b0b10"/><ellipse cx="160" cy="150" rx="42" ry="48" fill="#d5a176"/><path d="M125 135q35-28 70 0v-24q-35-20-70 0z" fill="#17141a"/><path d="M137 169q23 18 46 0q-4 35-23 44q-19-9-23-44z" fill="#28201d"/><circle cx="146" cy="148" r="4"/><circle cx="176" cy="148" r="4"/><path d="M95 235h130M88 270h145M105 300h112" stroke="#f7cf8d" stroke-width="5" opacity=".7"/></g>
 <g transform="translate(500 165)" fill="#171520"><path d="M0 260c5-90 25-150 70-165 40 14 58 72 65 165z"/><ellipse cx="70" cy="87" rx="30" ry="36" fill="#c28f6c"/><path d="M38 65h64l-12-30H50z"/><path d="M155 260c5-100 28-165 72-178 42 17 60 80 66 178z"/><ellipse cx="225" cy="74" rx="29" ry="35" fill="#bb8767"/><path d="M190 53h70l-15-32h-40z"/></g>
 <g transform="translate(760 350)"><rect width="300" height="80" rx="8" fill="#44251c"/><path d="M22 17h250M33 36h220M60 56h170" stroke="#d6aa6a" stroke-width="4"/><circle cx="250" cy="30" r="17" fill="#39bfff" opacity=".75"/><path d="M250 10v40M230 30h40" stroke="#bdf3ff"/></g>
 <g fill="none" stroke="#4dd6ff" stroke-width="3" opacity=".55"><circle cx="1080" cy="180" r="44"/><circle cx="1080" cy="180" r="28"/><path d="M1035 180h90M1080 135v90"/></g>
</g>
<!-- STORY CARDS y=520,760 -->
<g transform="translate(0 520)"><rect width="400" height="225" fill="url(#sunset)"/><path d="M0 165h400v60H0z" fill="#0c0d14" opacity=".8"/><path d="M0 150l60-45 45 20 70-68 62 68 57-34 106 62v72H0z" fill="#3f2426"/><g transform="translate(168 40)"><path d="M0 150c4-70 18-113 50-125 32 12 46 56 50 125z" fill="#17151a"/><ellipse cx="50" cy="40" rx="23" ry="27" fill="#c99570"/><path d="M22 22h56L68 0H32z" fill="#07080c"/><path d="M35 60q15 13 30 0q-3 21-15 27q-12-7-15-27" fill="#2a201e"/></g></g>
<g transform="translate(400 520)"><rect width="400" height="225" fill="url(#blue)"/><path d="M0 155h400v70H0z" fill="#263252" opacity=".9"/><g fill="#dbe8ff" opacity=".75"><rect x="34" y="80" width="145" height="58" rx="8"/><rect x="202" y="70" width="160" height="68" rx="8"/></g><g fill="#25324e"><circle cx="75" cy="115" r="17"/><circle cx="130" cy="110" r="17"/><circle cx="238" cy="106" r="17"/><circle cx="304" cy="103" r="17"/></g><path d="M30 40h340M40 52h190" stroke="#fff" stroke-width="4" opacity=".4"/></g>
<g transform="translate(800 520)"><rect width="400" height="225" fill="#47251d"/><circle cx="300" cy="55" r="80" fill="#d39346" opacity=".55"/><path d="M0 170h400v55H0z" fill="#0d0d13"/><g fill="#1a1516"><path d="M45 170c6-80 20-116 55-128 33 15 50 60 55 128z"/><path d="M145 170c6-88 25-130 62-142 36 14 52 65 58 142z"/><path d="M260 170c5-75 22-115 58-126 34 13 50 55 55 126z"/></g><path d="M15 75h370M55 45h290" stroke="#f0b76c" stroke-width="4" opacity=".38"/></g>
<g transform="translate(1200 520)"><rect width="400" height="225" fill="url(#mountain)"/><path d="M0 190 110 65l72 85 68-112 150 152v35H0z" fill="#7f9ab5"/><path d="M0 210 85 122l68 70 56-75 92 95 50-60 49 58v15H0z" fill="#d9e3e8"/><g transform="translate(235 76)"><path d="M0 135c7-75 18-106 45-112 25 10 40 50 46 112z" fill="#27344a"/><circle cx="46" cy="24" r="15" fill="#d0a482"/><path d="M50 52 91 7" stroke="#2e2c2f" stroke-width="7"/></g></g>
<g transform="translate(0 760)"><rect width="400" height="225" fill="#597089"/><rect width="400" height="225" fill="url(#cloud)"/><path d="M0 178h400v47H0z" fill="#111825"/><path d="M35 178V82h100v96m110 0V55h120v123" fill="#26384b"/><path d="M15 90h140M220 65h170" stroke="#b7c7d8" stroke-width="9"/><g fill="#101620"><circle cx="95" cy="150" r="17"/><circle cx="190" cy="165" r="15"/><circle cx="300" cy="144" r="18"/></g></g>
<g transform="translate(400 760)"><rect width="400" height="225" fill="#18212b"/><circle cx="90" cy="90" r="75" fill="#d27d35" opacity=".32"/><path d="M0 185h400v40H0z" fill="#080b0f"/><g fill="#9a4c25"><rect x="30" y="20" width="28" height="140"/><rect x="110" y="0" width="26" height="170"/><rect x="205" y="35" width="24" height="135"/></g><g fill="#ffb44e"><circle cx="44" cy="67" r="12"/><circle cx="123" cy="45" r="12"/><circle cx="218" cy="80" r="12"/></g><path d="M240 185c5-75 20-112 54-124 31 15 48 62 53 124z" fill="#161318"/></g>
<g transform="translate(800 760)"><rect width="400" height="225" fill="#11122f"/><path d="M0 185h400v40H0z" fill="#070718"/><g fill="#6d38dc"><rect x="30" y="80" width="55" height="105"/><rect x="102" y="45" width="70" height="140"/><rect x="190" y="68" width="54" height="117"/><rect x="265" y="30" width="80" height="155"/></g><g fill="#27d0ff"><rect x="48" y="98" width="9" height="34"/><rect x="121" y="65" width="12" height="45"/><rect x="211" y="90" width="8" height="44"/><rect x="290" y="52" width="12" height="48"/></g><circle cx="205" cy="100" r="65" fill="#ec6cff" opacity=".12"/></g>
<g transform="translate(1200 760)"><rect width="400" height="225" fill="#071328"/><path d="M0 175c100-20 185-5 245-30 60-25 100-67 155-55v135H0z" fill="#112a4d"/><path d="M0 190c140-35 245 5 400-40" fill="none" stroke="#2f76bd" stroke-width="6"/><g transform="translate(195 50)"><path d="M0 60 120 10 95 70 120 130 0 82 25 70z" fill="#94c9e8"/><path d="M105 22 155 0l-25 55z" fill="#f48b4e"/><circle cx="52" cy="70" r="7" fill="#1b314e"/></g><circle cx="85" cy="60" r="2" fill="#fff"/><circle cx="130" cy="35" r="3" fill="#fff"/><circle cx="330" cy="40" r="2" fill="#fff"/></g>
<!-- ROLE PORTRAITS y=1000 -->
<g transform="translate(0 1000)"><rect width="300" height="400" fill="#796843"/><rect width="300" height="400" fill="url(#cloud)" opacity=".38"/><path d="M0 330 72 260l55 28 48-45 125 92v65H0z" fill="#11151a" opacity=".52"/><g transform="translate(53 28)"><path d="M25 372c5-145 31-240 97-263 64 23 93 119 100 263z" fill="#17253b" stroke="#b58a43" stroke-width="6"/><path d="M76 116V54h94v62" fill="#111015"/><path d="M48 65h152L172 28H76z" fill="#08090d"/><path d="M40 70H5v16h54M207 70h35v16h-54" fill="#111015"/><ellipse cx="123" cy="138" rx="47" ry="55" fill="#c78f69"/><path d="M78 122q45-35 90 0v-30q-45-20-90 0z" fill="#181419"/><circle cx="106" cy="135" r="4"/><circle cx="141" cy="135" r="4"/><path d="M118 141q6 8 12 0" fill="none" stroke="#784d3c" stroke-width="3"/><path d="M91 162q32 26 64 0q-7 53-32 66q-25-13-32-66z" fill="#2c211d"/><path d="M96 165q27 15 54 0" fill="none" stroke="#0d0d10" stroke-width="5"/><path d="M62 255h122M56 290h136M75 326h98" stroke="#b58a43" stroke-width="6" opacity=".72"/><circle cx="123" cy="280" r="38" fill="none" stroke="#b58a43" stroke-width="5" opacity=".55"/><path d="M100 280h46M123 257v46" stroke="#b58a43" stroke-width="4" opacity=".55"/></g></g><g transform="translate(300 1000)"><rect width="300" height="400" fill="#6f6d67"/><rect width="300" height="400" fill="url(#cloud)" opacity=".38"/><path d="M0 330 72 260l55 28 48-45 125 92v65H0z" fill="#11151a" opacity=".52"/><g transform="translate(53 28)"><path d="M25 372c5-145 31-240 97-263 64 23 93 119 100 263z" fill="#172844" stroke="#a67f3e" stroke-width="6"/><path d="M76 116V54h94v62" fill="#111015"/><path d="M48 65h152L172 28H76z" fill="#08090d"/><path d="M40 70H5v16h54M207 70h35v16h-54" fill="#111015"/><ellipse cx="123" cy="138" rx="47" ry="55" fill="#c78f69"/><path d="M78 122q45-35 90 0v-30q-45-20-90 0z" fill="#181419"/><circle cx="106" cy="135" r="4"/><circle cx="141" cy="135" r="4"/><path d="M118 141q6 8 12 0" fill="none" stroke="#784d3c" stroke-width="3"/><path d="M91 162q32 26 64 0q-7 53-32 66q-25-13-32-66z" fill="#2c211d"/><path d="M96 165q27 15 54 0" fill="none" stroke="#0d0d10" stroke-width="5"/><path d="M62 255h122M56 290h136M75 326h98" stroke="#a67f3e" stroke-width="6" opacity=".72"/><circle cx="123" cy="280" r="38" fill="none" stroke="#a67f3e" stroke-width="5" opacity=".55"/><path d="M100 280h46M123 257v46" stroke="#a67f3e" stroke-width="4" opacity=".55"/></g></g><g transform="translate(600 1000)"><rect width="300" height="400" fill="#8a795f"/><rect width="300" height="400" fill="url(#cloud)" opacity=".38"/><path d="M0 330 72 260l55 28 48-45 125 92v65H0z" fill="#11151a" opacity=".52"/><g transform="translate(53 28)"><path d="M25 372c5-145 31-240 97-263 64 23 93 119 100 263z" fill="#38424a" stroke="#b58d57" stroke-width="6"/><path d="M76 116V54h94v62" fill="#111015"/><path d="M48 65h152L172 28H76z" fill="#08090d"/><path d="M40 70H5v16h54M207 70h35v16h-54" fill="#111015"/><ellipse cx="123" cy="138" rx="47" ry="55" fill="#c78f69"/><path d="M78 122q45-35 90 0v-30q-45-20-90 0z" fill="#181419"/><circle cx="106" cy="135" r="4"/><circle cx="141" cy="135" r="4"/><path d="M118 141q6 8 12 0" fill="none" stroke="#784d3c" stroke-width="3"/><path d="M62 255h122M56 290h136M75 326h98" stroke="#b58d57" stroke-width="6" opacity=".72"/><circle cx="123" cy="280" r="38" fill="none" stroke="#b58d57" stroke-width="5" opacity=".55"/><path d="M100 280h46M123 257v46" stroke="#b58d57" stroke-width="4" opacity=".55"/></g></g><g transform="translate(900 1000)"><rect width="300" height="400" fill="#70756d"/><rect width="300" height="400" fill="url(#cloud)" opacity=".38"/><path d="M0 330 72 260l55 28 48-45 125 92v65H0z" fill="#11151a" opacity=".52"/><g transform="translate(53 28)"><path d="M25 372c5-145 31-240 97-263 64 23 93 119 100 263z" fill="#46505c" stroke="#ad8751" stroke-width="6"/><path d="M76 116V54h94v62" fill="#111015"/><path d="M48 65h152L172 28H76z" fill="#08090d"/><path d="M40 70H5v16h54M207 70h35v16h-54" fill="#111015"/><ellipse cx="123" cy="138" rx="47" ry="55" fill="#c78f69"/><path d="M78 122q45-35 90 0v-30q-45-20-90 0z" fill="#181419"/><circle cx="106" cy="135" r="4"/><circle cx="141" cy="135" r="4"/><path d="M118 141q6 8 12 0" fill="none" stroke="#784d3c" stroke-width="3"/><path d="M91 162q32 26 64 0q-7 53-32 66q-25-13-32-66z" fill="#2c211d"/><path d="M96 165q27 15 54 0" fill="none" stroke="#0d0d10" stroke-width="5"/><path d="M62 255h122M56 290h136M75 326h98" stroke="#ad8751" stroke-width="6" opacity=".72"/><circle cx="123" cy="280" r="38" fill="none" stroke="#ad8751" stroke-width="5" opacity=".55"/><path d="M100 280h46M123 257v46" stroke="#ad8751" stroke-width="4" opacity=".55"/></g></g><g transform="translate(1200 1000)"><rect width="300" height="400" fill="#352821"/><rect width="300" height="400" fill="url(#cloud)" opacity=".38"/><path d="M0 330 72 260l55 28 48-45 125 92v65H0z" fill="#11151a" opacity=".52"/><g transform="translate(53 28)"><path d="M25 372c5-145 31-240 97-263 64 23 93 119 100 263z" fill="#25191b" stroke="#8c5a31" stroke-width="6"/><path d="M76 116V54h94v62" fill="#111015"/><path d="M48 65h152L172 28H76z" fill="#08090d"/><path d="M40 70H5v16h54M207 70h35v16h-54" fill="#111015"/><ellipse cx="123" cy="138" rx="47" ry="55" fill="#c78f69"/><path d="M78 122q45-35 90 0v-30q-45-20-90 0z" fill="#181419"/><circle cx="106" cy="135" r="4"/><circle cx="141" cy="135" r="4"/><path d="M118 141q6 8 12 0" fill="none" stroke="#784d3c" stroke-width="3"/><path d="M62 255h122M56 290h136M75 326h98" stroke="#8c5a31" stroke-width="6" opacity=".72"/><circle cx="123" cy="280" r="38" fill="none" stroke="#8c5a31" stroke-width="5" opacity=".55"/><path d="M100 280h46M123 257v46" stroke="#8c5a31" stroke-width="4" opacity=".55"/></g></g>
<!-- GAME PORTRAIT 0,1400 -->
<g transform="translate(0 1400)"><rect width="220" height="320" fill="#2c2318"/><path d="M22 320c6-135 30-220 88-235 58 17 83 105 90 235z" fill="#251a13" stroke="#81603d" stroke-width="5"/><ellipse cx="110" cy="95" rx="39" ry="46" fill="#bd8763"/><path d="M72 73h76L136 35H85z" fill="#08090b"/><path d="M64 75H27v13h51m78-13h36v13h-50" fill="#0b0b0d"/><path d="M81 120q29 24 58 0q-6 44-29 58q-23-14-29-58z" fill="#241a17"/><path d="M57 215h105M54 250h112M73 283h76" stroke="#8e6d45" stroke-width="5"/></g>
<!-- AVATARS -->
<g transform="translate(240 1400)"><rect width="160" height="160" fill="#57442e"/><path d="M25 160c4-70 20-105 55-115 34 10 50 48 55 115z" fill="#17253b"/><ellipse cx="80" cy="56" rx="28" ry="32" fill="#c28e69"/><path d="M50 38h60L99 10H62z" fill="#090a0c"/><path d="M47 42H19v10h40m54-10h28v10h-39" fill="#0d0e11"/><circle cx="70" cy="56" r="3"/><circle cx="91" cy="56" r="3"/><path d="M57 90q23 19 46 0q-4 34-23 44q-19-10-23-44z" fill="#2c211d"/></g><g transform="translate(420 1400)"><rect width="160" height="160" fill="#67635a"/><path d="M25 160c4-70 20-105 55-115 34 10 50 48 55 115z" fill="#39444c"/><ellipse cx="80" cy="56" rx="28" ry="32" fill="#c28e69"/><path d="M50 38h60L99 10H62z" fill="#090a0c"/><path d="M47 42H19v10h40m54-10h28v10h-39" fill="#0d0e11"/><circle cx="70" cy="56" r="3"/><circle cx="91" cy="56" r="3"/></g><g transform="translate(600 1400)"><rect width="160" height="160" fill="#5d5143"/><path d="M25 160c4-70 20-105 55-115 34 10 50 48 55 115z" fill="#46505b"/><ellipse cx="80" cy="56" rx="28" ry="32" fill="#c28e69"/><path d="M50 38h60L99 10H62z" fill="#090a0c"/><path d="M47 42H19v10h40m54-10h28v10h-39" fill="#0d0e11"/><circle cx="70" cy="56" r="3"/><circle cx="91" cy="56" r="3"/><path d="M57 90q23 19 46 0q-4 34-23 44q-19-10-23-44z" fill="#2c211d"/></g><g transform="translate(780 1400)"><rect width="160" height="160" fill="#30231d"/><path d="M25 160c4-70 20-105 55-115 34 10 50 48 55 115z" fill="#26191a"/><ellipse cx="80" cy="56" rx="28" ry="32" fill="#c28e69"/><path d="M50 38h60L99 10H62z" fill="#090a0c"/><path d="M47 42H19v10h40m54-10h28v10h-39" fill="#0d0e11"/><circle cx="70" cy="56" r="3"/><circle cx="91" cy="56" r="3"/></g><g transform="translate(960 1400)"><rect width="160" height="160" fill="#55452e"/><path d="M25 160c4-70 20-105 55-115 34 10 50 48 55 115z" fill="#40301f"/><ellipse cx="80" cy="56" rx="28" ry="32" fill="#c28e69"/><path d="M50 38h60L99 10H62z" fill="#090a0c"/><path d="M47 42H19v10h40m54-10h28v10h-39" fill="#0d0e11"/><circle cx="70" cy="56" r="3"/><circle cx="91" cy="56" r="3"/><path d="M57 90q23 19 46 0q-4 34-23 44q-19-10-23-44z" fill="#2c211d"/></g></svg>